# xmcd
#
# Track frame offsets: 
#        150
#        4411
#        21546
#        37909
#        51244
#        69734
#        88113
#        93991
#        110348
#        139882
#        160227
#        178348
#        218090
#
# Disc length: 3258 seconds
#
# Revision: 1
# Processed by: cddbd v1.5.2PL0 Copyright (c) Steve Scherf et al.
# Submitted via: ExactAudioCopy v1.0b1
#
DISCID=b90cb80d
DTITLE=The Blues Brother Revival Band - We Play Both ... (Live in Düss
DTITLE=eldorf, Köln and Krefeld) - CD 1
DYEAR=1998
DGENRE=Blues
TTITLE0=Concert Opening
TTITLE1=Gimme Some Lovin'
TTITLE2='B' Movie Box Car Blues
TTITLE3=Hey Bartender
TTITLE4=I'm A Kingbee
TTITLE5=Bye Bye Trouble
TTITLE6=Closing: I Can't Turn You Loose
TTITLE7=Do You Love Me - Mother Popcorn (You Got To Have A Mother For 
TTITLE7=Me)
TTITLE8=I Got The Feeling - Sex Machine
TTITLE9=Sledgehammer
TTITLE10=Nuclear Blues
TTITLE11=Soul Man
TTITLE12=Everybody Needs Somebody To Love
EXTD=Blues Brother revivalband
EXTT0=
EXTT1=
EXTT2=
EXTT3=
EXTT4=
EXTT5=
EXTT6=
EXTT7=
EXTT8=
EXTT9=
EXTT10=
EXTT11=
EXTT12=
PLAYORDER=
